<?xml version="1.0" encoding="UTF-8"?>
<svg xmlns="http://www.w3.org/2000/svg" viewBox="0 0 1478.52 304.81">
  <defs>
    <style>
      .cls-1 {
        fill: #fff;
      }
    </style>
  </defs>
  <g id="Competence">
    <g>
      <path class="cls-1" d="M336.72,185.25h44.46c3.62,18.44,15.81,25.69,32.28,25.69,18.77,0,28.32-10.54,28.32-24.7s-9.22-21.41-26.35-26.02l-25.36-7.25c-34.91-9.55-49.07-34.91-49.07-61.92,0-41.83,31.29-68.83,72.13-68.83,44.46,0,68.5,26.02,72.79,66.53h-43.47c-2.63-16.47-12.19-24.7-29.31-24.7-15.15,0-26.68,9.22-26.68,24.04s10.21,20.42,22.4,23.71l25.36,6.92c32.93,8.56,53.03,32.93,53.03,64.88,0,44.13-32.61,69.16-73.77,69.16-45.45,0-72.79-24.04-76.74-67.52Z"/>
      <path class="cls-1" d="M650.51,178.34h-99.46c2.31,29.97,14.49,38.53,30.63,38.53,12.84,0,21.41-4.94,25.36-14.82h42.82c-6.26,31.29-33.26,50.72-68.17,50.72-42.49,0-71.14-30.63-71.14-84.64s27.67-84.64,72.13-84.64c41.5,0,68.5,31.62,68.5,80.03,0,5.6,0,11.2-.66,14.82ZM552.37,147.71h58.62c-2.96-21.41-14.16-28.32-28.32-28.32-15.48,0-26.35,6.92-30.3,28.32Z"/>
      <path class="cls-1" d="M674.39,168.13c0-51.38,26.35-84.64,71.47-84.64,39.85,0,63.23,25.03,67.52,59.94h-42.81c-2.96-13.5-10.54-21.08-24.7-21.08-19.1,0-28.32,16.14-28.32,45.78s9.22,45.78,28.32,45.78c14.16,0,21.74-7.58,24.37-21.08h43.14c-4.28,34.91-27.67,59.94-67.52,59.94-45.12,0-71.47-33.59-71.47-84.64Z"/>
      <path class="cls-1" d="M839.88,193.82v-105.06h42.49v99.79c0,15.48,5.6,25.36,20.75,25.36,16.14,0,27.01-12.84,27.01-32.28v-92.88h42.49v158.74h-39.85v-19.43h-1.98c-8.23,15.48-23.38,24.7-42.49,24.7-32.28,0-48.41-20.09-48.41-58.95Z"/>
      <path class="cls-1" d="M1099.26,87.77v38.86c-4.28-.66-8.23-.66-11.53-.66-25.69,0-36.23,9.55-36.23,30.96v90.57h-42.49V88.76h39.85v19.43h1.98c7.57-14.16,20.42-22.07,37.22-22.07,3.62,0,7.58.33,11.2,1.65Z"/>
      <path class="cls-1" d="M1126,65.37V27.5h42.49v37.87h-42.49ZM1126,247.5V88.76h42.49v158.74h-42.49Z"/>
      <path class="cls-1" d="M1221.34,200.73v-75.75h-27.01v-36.23h27.01v-25.69l34.58-31.95h7.9v57.64h40.51v36.23h-40.51v70.48c0,11.86,6.92,18.11,19.1,18.11,6.26,0,12.51-.99,18.11-2.31v33.26c-8.89,3.95-18.44,5.6-30.3,5.6-29.31,0-49.4-17.13-49.4-49.4Z"/>
      <path class="cls-1" d="M1433.07,88.76h45.45l-61.92,175.87c-8.56,24.04-25.03,40.18-52.04,40.18-8.23,0-17.46-.99-25.69-4.28v-33.92c4.94,1.32,11.2,1.98,17.46,1.98,10.54,0,16.8-3.95,21.74-17.46l3.62-9.55-57.31-152.82h45.45l30.96,96.17h1.98l30.3-96.17Z"/>
    </g>
  </g>
  <g id="T_Logo" data-name="T Logo">
    <path class="cls-1" d="M55,181.5H0v-55h55v55ZM0,0v93.5h16.5v-2.75c0-44,24.75-71.5,71.5-71.5h2.75v198c0,27.5-11,38.5-38.5,38.5h-8.25v19.25h143v-19.25h-8.25c-27.5,0-38.5-11-38.5-38.5V19.25s2.75,0,2.75,0c46.75,0,71.5,27.5,71.5,71.5v2.75h16.5V0H0ZM176,181.5h55v-55h-55v55Z"/>
  </g>
</svg>